<svg width="29" height="36" viewBox="0 0 29 36" fill="none" xmlns="http://www.w3.org/2000/svg">
<path d="M14.2365 35.9146C20.0605 35.9146 24.7809 32.3998 24.7809 26.2489C24.7809 23.6128 23.9022 19.2193 20.3874 15.7045C20.8268 18.3406 18.1907 19.2193 18.1907 19.2193C19.5087 14.8258 15.9939 8.67496 10.7218 7.79626C11.3491 11.3111 11.6005 14.8258 7.20697 18.3406C5.01023 20.098 3.69218 23.1365 3.69218 26.2489C3.69218 32.3998 8.41254 35.9146 14.2365 35.9146ZM14.2365 34.1572C11.3245 34.1572 8.96436 32.3998 8.96436 29.3243C8.96436 28.0063 9.40371 25.8095 11.1611 24.0521C10.9414 25.3702 12.4791 26.2489 12.4791 26.2489C11.8201 24.0521 13.3578 20.5374 15.9939 20.098C15.6794 21.8554 15.5546 23.6128 17.7513 25.3702C18.8497 26.2489 19.5087 27.7673 19.5087 29.3243C19.5087 32.3998 17.1485 34.1572 14.2365 34.1572Z" fill="#052631"/>
</svg>
