<svg width="29" height="27" viewBox="0 0 29 27" fill="none" xmlns="http://www.w3.org/2000/svg">
<path d="M12.7152 2.50891C11.8463 2.50891 11.1442 3.21095 11.1442 4.0799V9.08251C11.1442 9.35743 10.9233 9.57835 10.6484 9.57835C10.4716 9.57835 10.3047 9.48507 10.2164 9.32798L7.85987 5.20904C4.22206 7.00095 1.7183 10.7468 1.7183 15.0768V18.2188H26.8541V14.959C26.8099 10.678 24.316 6.98622 20.7125 5.20904L18.356 9.32798C18.2677 9.48507 18.1007 9.57835 17.924 9.57835C17.6491 9.57835 17.4282 9.35743 17.4282 9.08251V4.0799C17.4282 3.21095 16.7261 2.50891 15.8572 2.50891H12.7152ZM0.962258 19.7898C0.510599 19.7898 0.147308 20.1531 0.147308 20.6047C0.147308 20.8355 0.245495 21.0564 0.43205 21.1889C1.49738 21.9695 5.63594 24.5027 14.2862 24.5027C22.9364 24.5027 27.075 21.9695 28.1403 21.1889C28.3269 21.0515 28.4251 20.8355 28.4251 20.6047C28.4251 20.1531 28.0618 19.7898 27.6101 19.7898H0.962258Z" fill="#052631"/>
</svg>
