<svg width="29" height="29" viewBox="0 0 29 29" fill="none" xmlns="http://www.w3.org/2000/svg">
<path fill-rule="evenodd" clip-rule="evenodd" d="M14.2306 6.18715C11.7694 3.13252 7.37245 2.94866 4.69162 5.78829C2.81341 7.77774 2.32512 10.6819 3.22671 13.147H8.03261L11.1017 7.01095L14.6174 14.0411L16.3752 10.5266L17.6853 13.147H26.0081C26.9096 10.6819 26.4214 7.77774 24.5432 5.78829C21.8623 2.94872 17.4654 3.13252 15.0042 6.18715L14.6174 6.66719L14.2306 6.18715ZM24.5742 15.4907H16.5135L14.6174 19.2829L11.1017 12.2516L9.48225 15.4907H4.66059C4.67088 15.5017 4.68122 15.5128 4.69162 15.5238L14.6124 26.0322L14.6173 26.0375L24.5431 15.5238C24.5535 15.5128 24.5639 15.5018 24.5742 15.4907Z" fill="#052631"/>
</svg>
