<svg width="29" height="29" viewBox="0 0 29 29" fill="none" xmlns="http://www.w3.org/2000/svg">
<path d="M9.42982 1.3158C9.98425 1.90543 10.3495 2.61646 10.5593 3.38435C10.9 4.63168 10.8783 6.02919 10.7637 7.45445C10.5343 10.3051 9.96277 13.3053 10.6296 15.1672C11.2556 16.9148 12.2593 17.9528 13.3729 18.4631C13.8519 18.6827 14.3562 18.8042 14.8663 18.8356C16.0855 15.2605 15.8254 10.6979 13.8193 7.61408C16.4753 10.2636 17.7299 14.2645 16.9194 18.4579L16.4371 18.6518C16.5877 18.6069 16.736 18.5548 16.8817 18.4957C19.1769 17.569 21.0551 14.8563 20.2737 10.8791C19.9146 9.05185 18.6825 6.47557 16.6207 4.47963C14.837 2.75302 12.4555 1.44675 9.42977 1.31591L9.42982 1.3158ZM25.0286 11.3975C24.9824 12.0622 24.7738 12.69 24.4485 13.2601C23.8798 14.2566 22.9956 15.1144 22.0383 15.9294C20.1236 17.5592 17.9153 19.069 17.1871 20.6105C16.4975 22.0708 16.4794 23.316 16.8473 24.3065C17.0046 24.7304 17.2398 25.121 17.5408 25.4583C20.4911 23.9868 23.129 21.0138 23.7926 17.8761C23.7968 21.1525 22.11 24.3958 19.0342 26.4952C21.0009 27.2942 23.7738 26.7717 25.7205 23.8722C26.6223 22.5288 27.454 20.1753 27.413 17.6718C27.3782 15.5466 26.7393 13.3196 25.0286 11.3977L25.0286 11.3975ZM1.68959 15.4334C1.16868 17.9535 1.72849 20.2032 2.76076 22.0612C3.97672 24.2496 5.87438 25.8721 7.32694 26.5844C10.4619 28.1218 13.123 27.1869 14.4268 25.5116C10.714 25.2314 7.63225 23.2664 5.99836 20.427C8.14179 22.8125 11.9122 24.0684 15.2028 23.867C15.2954 23.4246 15.3041 22.9687 15.2286 22.523C15.0521 21.4812 14.4118 20.411 13.0845 19.4914C11.6835 18.5208 9.01712 18.3181 6.54422 17.8641C5.30782 17.6372 4.11367 17.3373 3.12309 16.7586C2.55603 16.4274 2.06214 15.9863 1.6897 15.4334L1.68959 15.4334Z" fill="#052631"/>
</svg>
